<svg width="240" height="64" viewBox="0 0 240 64" fill="none" xmlns="http://www.w3.org/2000/svg" role="img" aria-label="Samlink logo">
  <defs>
    <linearGradient id="g1" x1="4" y1="8" x2="236" y2="56" gradientUnits="userSpaceOnUse">
      <stop stop-color="#4F6CFB"/>
      <stop offset="1" stop-color="#2DD4BF"/>
    </linearGradient>
    <linearGradient id="g2" x1="8" y1="14" x2="54" y2="52" gradientUnits="userSpaceOnUse">
      <stop stop-color="#FF7FA8"/>
      <stop offset="1" stop-color="#4F6CFB"/>
    </linearGradient>
  </defs>
  <rect x="2" y="2" width="60" height="60" rx="20" fill="url(#g2)"/>
  <path d="M19 18h13.2c4.4 0 7.9 3.4 7.9 7.7 0 3.2-1.9 5.9-4.7 7.1l6 9.5h-7.7l-5.1-8.3h-3.6v8.3H19V18Zm6 6.1v6.1h6.1c1.7 0 3.1-1.4 3.1-3.1s-1.4-3-3.1-3H25Z" fill="white"/>
  <path d="M76 18h12.6v28.8H76V18Z" fill="url(#g1)"/>
  <path d="M99 18h11.9l8.3 12.1L127.5 18H139v28.8h-11.1V34.1l-7.1 10.3h-2.8l-7-10.1v12.5H99V18Z" fill="url(#g1)"/>
  <path d="M148 18h11.8l7.4 20.1 7.4-20.1H187l-12.2 28.8h-14.9L148 18Z" fill="url(#g1)"/>
  <path d="M194 18h12.4v28.8H194V18Z" fill="url(#g1)"/>
</svg>
