<svg width="320" height="92" viewBox="0 0 320 92" fill="none" xmlns="http://www.w3.org/2000/svg" role="img" aria-label="샘링크 로고">
  <defs>
    <linearGradient id="icon" x1="10" y1="14" x2="78" y2="78" gradientUnits="userSpaceOnUse">
      <stop stop-color="#8B5CF6"/>
      <stop offset="0.5" stop-color="#C16AE0"/>
      <stop offset="1" stop-color="#57C3E8"/>
    </linearGradient>
    <linearGradient id="word" x1="92" y1="28" x2="214" y2="54" gradientUnits="userSpaceOnUse">
      <stop stop-color="#18233D"/>
      <stop offset="1" stop-color="#23335E"/>
    </linearGradient>
    <linearGradient id="subtitle" x1="92" y1="60" x2="220" y2="76" gradientUnits="userSpaceOnUse">
      <stop stop-color="#5B647B"/>
      <stop offset="1" stop-color="#7A849D"/>
    </linearGradient>
  </defs>
  <rect width="320" height="92" rx="20" fill="white" fill-opacity="0.01"/>
  <g transform="translate(8 8)">
    <rect x="0" y="10" width="64" height="64" rx="22" fill="url(#icon)"/>
    <path d="M33 17c8.6 0 12.9 4.4 12.9 10.2 0 4.7-2.8 8.1-7.5 9.4-3 .8-3.2 2.4-1.3 3.9l1.4 1.2c5.5 4.5 7.6 8 7.6 12.2 0 7.6-6 12.6-14.7 12.6-6.5 0-12.4-2.8-16.3-7.7l5.7-4.6c3 3.8 6.9 5.8 11.2 5.8 4.7 0 7.8-2.4 7.8-5.8 0-2.2-1.3-4.1-4.6-6.8l-1.2-1c-4.5-3.7-5.7-6.9-4.7-10.1 1.3-4.1 5.1-6.7 9.7-7.2 3.4-.4 5.4-1.9 5.4-4.8 0-2.8-2.2-4.9-6.5-4.9-4.2 0-8.1 1.7-11 4.9l-4.8-5.3C19.1 19.2 25.4 17 33 17Z" fill="white"/>
  </g>
  <g transform="translate(92 22)">
    <text x="0" y="30" fill="url(#word)" font-size="31" font-weight="900" font-family="Noto Sans KR, Apple SD Gothic Neo, Segoe UI, sans-serif" letter-spacing="-1.5">샘링크</text>
    <text x="0" y="56" fill="url(#subtitle)" font-size="13.5" font-weight="700" font-family="Noto Sans KR, Apple SD Gothic Neo, Segoe UI, sans-serif" letter-spacing="-0.2">교육용 URL 단축 서비스</text>
  </g>
</svg>
